<svg width="1024" height="1024" version="1.1" xmlns="http://www.w3.org/2000/svg" desc="Created with imagetracer.js version 1.2.6" ><path fill="rgb(254,254,254)" stroke="rgb(254,254,254)" stroke-width="1" opacity="0.8941176470588236" d="M 343.5 301 Q 356.5 299.5 360 307.5 L 364 318.5 L 366 329.5 L 368 332.5 L 368 336.5 L 369.5 338 L 375.5 336 L 381.5 336 L 386.5 334 L 406.5 332 L 413.5 330 L 422.5 330 L 423.5 329 L 442.5 328 L 443.5 327 L 455.5 327 L 456.5 326 L 467.5 326 L 468.5 327 L 491.5 328 L 513.5 334 L 525.5 341 L 536 351.5 L 546.5 372 L 598.5 371 L 599.5 372 L 612.5 372 L 619.5 374 L 625.5 374 L 630.5 376 L 635.5 376 L 653.5 384 L 662 391.5 L 669 402.5 L 678 429.5 L 682 437.5 L 682 440.5 L 706 505.5 L 714 531.5 L 722 550.5 L 724 556.5 L 724 562.5 L 718.5 570 Q 714.2 573.7 704.5 572 L 699.5 570 L 689.5 568 L 682.5 568 L 675.5 566 L 655.5 565 L 654.5 564 L 616.5 563 L 615.5 564 L 595.5 564 L 594.5 565 L 576.5 566 L 575.5 567 L 552.5 570 L 531.5 576 L 525.5 576 L 518 572 L 498 526.5 L 492.5 517 L 464.5 520 L 459.5 522 L 454.5 522 L 449.5 524 L 436.5 526 L 422 530.5 L 428 547.5 L 428 551.5 L 432 562.5 L 436 581.5 L 450 626.5 L 452 634.5 L 452 641.5 L 445.5 650 Q 442.5 653 435.5 652 L 426 644.5 L 404 567.5 L 404 563.5 L 392 524.5 L 392 520.5 L 388 510.5 L 386 498.5 L 384 495.5 Q 378.6 468.9 370 445.5 L 370 441.5 L 368 438.5 L 366 427.5 L 360 409.5 L 360 405.5 L 354 388.5 L 354 384.5 L 348 366.5 L 348 362.5 L 338 330.5 L 338 326.5 L 335 318.5 L 335 310.5 Q 336.4 304.4 341.5 302 L 343.5 301 Z M 449 353 L 448 354 L 437 354 L 429 356 L 406 358 L 400 360 L 393 360 L 387 362 L 376 363 Q 378 379 384 392 L 384 396 L 386 399 L 386 403 L 415 504 L 460 494 L 471 493 L 472 492 L 482 492 L 490 490 L 511 489 L 512 488 L 554 488 L 555 489 L 564 489 L 565 490 L 514 368 Q 506 358 492 355 L 479 354 L 478 353 L 449 353 Z M 567 397 L 566 398 L 556 398 L 592 485 L 600 501 L 601 506 Q 601 515 596 518 Q 593 517 594 520 L 584 528 L 573 540 L 587 539 L 588 538 L 605 538 L 606 537 L 661 538 L 672 540 L 683 540 L 689 542 L 656 446 L 643 412 L 638 406 L 621 400 L 610 399 L 609 398 L 598 398 L 597 397 L 567 397 Z M 523 515 L 534 540 L 558 517 L 551 515 L 523 515 Z " /><path fill="rgb(0,0,0)" stroke="rgb(0,0,0)" stroke-width="1" opacity="0" d="M 1.5 0 L 1022.5 0 L 1024 1.5 L 1024 1022.5 L 1022.5 1024 L 1.5 1024 L 0 1022.5 L 0 1.5 L 1.5 0 Z M 344 301 L 342 302 Q 336 304 335 311 L 335 319 L 338 327 L 338 331 L 348 363 L 348 367 L 354 385 L 354 389 L 360 406 L 360 410 L 366 428 L 368 439 L 370 442 L 370 446 Q 379 469 384 496 L 386 499 L 388 511 L 392 521 L 392 525 L 404 564 L 404 568 L 426 645 L 436 652 Q 443 653 446 650 L 452 642 L 452 635 L 450 627 L 436 582 L 432 563 L 428 552 L 428 548 L 422 531 L 437 526 L 450 524 L 455 522 L 460 522 L 465 520 L 493 517 L 498 527 L 518 572 L 526 576 L 532 576 L 553 570 L 576 567 L 577 566 L 595 565 L 596 564 L 616 564 L 617 563 L 655 564 L 656 565 L 676 566 L 683 568 L 690 568 L 700 570 L 705 572 Q 714 574 719 570 L 724 563 L 724 557 L 722 551 L 714 532 L 706 506 L 682 441 L 682 438 L 678 430 L 669 403 L 662 392 L 654 384 L 636 376 L 631 376 L 626 374 L 620 374 L 613 372 L 600 372 L 599 371 L 547 372 L 536 352 L 526 341 L 514 334 L 492 328 L 469 327 L 468 326 L 457 326 L 456 327 L 444 327 L 443 328 L 424 329 L 423 330 L 414 330 L 407 332 L 387 334 L 382 336 L 376 336 L 370 338 L 368 337 L 368 333 L 366 330 L 364 319 L 360 308 Q 357 299 344 301 Z " /><path fill="rgb(0,0,0)" stroke="rgb(0,0,0)" stroke-width="1" opacity="0" d="M 448.5 353 L 477.5 353 L 478.5 354 L 491.5 355 Q 506.3 357.7 514 367.5 L 565 489.5 L 563.5 489 L 554.5 489 L 553.5 488 L 511.5 488 L 510.5 489 L 489.5 490 L 481.5 492 L 471.5 492 L 470.5 493 L 459.5 494 L 415 504 L 386 402.5 L 386 398.5 L 384 395.5 L 384 391.5 Q 378.2 378.5 376 363 L 386.5 362 L 392.5 360 L 399.5 360 L 405.5 358 L 428.5 356 L 436.5 354 L 447.5 354 L 448.5 353 Z " /><path fill="rgb(0,0,0)" stroke="rgb(0,0,0)" stroke-width="1" opacity="0" d="M 566.5 397 L 596.5 397 L 597.5 398 L 608.5 398 L 609.5 399 L 620.5 400 L 637.5 406 L 643 411.5 L 656 445.5 L 689 542 L 682.5 540 L 671.5 540 L 660.5 538 L 605.5 537 L 604.5 538 L 587.5 538 L 586.5 539 L 572.5 540 L 583.5 528 L 594 520 Q 592.9 517.3 595.5 518 Q 601.2 514.7 601 505.5 L 600 500.5 L 592 484.5 L 556 398 L 565.5 398 L 566.5 397 Z " /><path fill="rgb(0,0,0)" stroke="rgb(0,0,0)" stroke-width="1" opacity="0" d="M 522.5 515 L 550.5 515 L 558 516.5 L 533.5 540 L 522.5 515 Z " /></svg>